<svg width="24" height="23" viewBox="0 0 24 23" fill="none" xmlns="http://www.w3.org/2000/svg">
<circle cx="8" cy="11" r="2" stroke="#842FC1" stroke-width="2"/>
<path d="M5.5 8C5.9 8 8.5 8.66667 9 9" stroke="black"/>
<circle cx="3" cy="3" r="2" transform="matrix(-1 0 0 1 19 8)" stroke="#842FC1" stroke-width="2"/>
<path d="M18.5 8C18.1 8 15.5 8.66667 15 9" stroke="black"/>
<mask id="path-5-inside-1_25_58" fill="white">
<path fill-rule="evenodd" clip-rule="evenodd" d="M18 18.6622C21.5868 16.9331 24 13.7014 24 10C24 4.47715 18.6274 0 12 0C5.37258 0 0 4.47715 0 10C0 13.7014 2.41319 16.9331 6 18.6622V23H18V18.6622Z"/>
</mask>
<path d="M18 18.6622L17.1315 16.8606L16 17.406V18.6622H18ZM6 18.6622H8V17.406L6.86847 16.8606L6 18.6622ZM6 23H4V25H6V23ZM18 23V25H20V23H18ZM22 10C22 12.7684 20.1888 15.3868 17.1315 16.8606L18.8685 20.4638C22.9848 18.4795 26 14.6345 26 10H22ZM12 2C17.8798 2 22 5.90767 22 10H26C26 3.04664 19.3751 -2 12 -2V2ZM2 10C2 5.90767 6.12023 2 12 2V-2C4.62493 -2 -2 3.04664 -2 10H2ZM6.86847 16.8606C3.81118 15.3868 2 12.7684 2 10H-2C-2 14.6345 1.01521 18.4795 5.13153 20.4638L6.86847 16.8606ZM8 23V18.6622H4V23H8ZM18 21H6V25H18V21ZM16 18.6622V23H20V18.6622H16Z" fill="#842FC1" mask="url(#path-5-inside-1_25_58)"/>
<line x1="10.5" y1="21" x2="10.5" y2="18" stroke="#842FC1"/>
<line x1="13.5" y1="21" x2="13.5" y2="18" stroke="#842FC1"/>
</svg>
